HIERARCHY
ROOT Hips
{
	OFFSET 0.000000 0.000000 0.000000
	CHANNELS 6 Xposition Yposition Zposition Zrotation Yrotation Xrotation 
	JOINT LHipJoint
	{
		OFFSET 0.000000 0.000000 0.000000
		CHANNELS 3 Zrotation Yrotation Xrotation
		JOINT LeftUpLeg
		{
			OFFSET 1.363060 -1.794630 0.839290
			CHANNELS 3 Zrotation Yrotation Xrotation
			JOINT LeftLeg
			{
				OFFSET 2.448110 -6.726130 0.000000
				CHANNELS 3 Zrotation Yrotation Xrotation
				JOINT LeftFoot
				{
					OFFSET 2.562200 -7.039590 0.000000
					CHANNELS 3 Zrotation Yrotation Xrotation
					JOINT LeftToeBase
					{
						OFFSET 0.157640 -0.433110 2.322550
						CHANNELS 3 Zrotation Yrotation Xrotation
						End Site
						{
							OFFSET 0.000000 0.000000 0.000000
						}
					}
				}
			}
		}
	}
	JOINT RHipJoint
	{
		OFFSET 0.000000 0.000000 0.000000
		CHANNELS 3 Zrotation Yrotation Xrotation
		JOINT RightUpLeg
		{
			OFFSET -1.305520 -1.794630 0.839290
			CHANNELS 3 Zrotation Yrotation Xrotation
			JOINT RightLeg
			{
				OFFSET -2.542530 -6.985550 0.000000
				CHANNELS 3 Zrotation Yrotation Xrotation
				JOINT RightFoot
				{
					OFFSET -2.568260 -7.056230 0.000000
					CHANNELS 3 Zrotation Yrotation Xrotation
					JOINT RightToeBase
					{
						OFFSET -0.164730 -0.452590 2.363150
						CHANNELS 3 Zrotation Yrotation Xrotation
						End Site
						{
							OFFSET 0.000000 0.000000 0.000000
						}
					}
				}
			}
		}
	}
	JOINT LowerBack
	{
		OFFSET 0.000000 0.000000 0.000000
		CHANNELS 3 Zrotation Yrotation Xrotation
		JOINT Spine
		{
			OFFSET 0.028270 2.035590 -0.193380
			CHANNELS 3 Zrotation Yrotation Xrotation
			JOINT Spine1
			{
				OFFSET 0.056720 2.048850 -0.042750
				CHANNELS 3 Zrotation Yrotation Xrotation
				JOINT Neck
				{
					OFFSET 0.000000 0.000000 0.000000
					CHANNELS 3 Zrotation Yrotation Xrotation
					JOINT Neck1
					{
						OFFSET -0.054170 1.746240 0.172020
						CHANNELS 3 Zrotation Yrotation Xrotation
						JOINT Head
						{
							OFFSET 0.104070 1.761360 -0.123970
							CHANNELS 3 Zrotation Yrotation Xrotation
							End Site
							{
								OFFSET 0.000000 0.000000 0.000000
							}
						}
					}
				}
				JOINT LeftShoulder
				{
					OFFSET 0.000000 0.000000 0.000000
					CHANNELS 3 Zrotation Yrotation Xrotation
					JOINT LeftArm
					{
						OFFSET 3.362410 1.200890 -0.311210
						CHANNELS 3 Zrotation Yrotation Xrotation
						JOINT LeftForeArm
						{
							OFFSET 4.983000 -0.000000 -0.000000
							CHANNELS 3 Zrotation Yrotation Xrotation
							JOINT LeftHand
							{
								OFFSET 3.483560 -0.000000 -0.000000
								CHANNELS 3 Zrotation Yrotation Xrotation
								JOINT LeftFingerBase
								{
									OFFSET 0.000000 0.000000 0.000000
									CHANNELS 3 Zrotation Yrotation Xrotation
									JOINT LeftHandIndex1
									{
										OFFSET 0.715260 -0.000000 -0.000000
										CHANNELS 3 Zrotation Yrotation Xrotation
										End Site
										{
											OFFSET 0.000000 0.000000 0.000000
										}
									}
								}
								JOINT LThumb
								{
									OFFSET 0.000000 0.000000 0.000000
									CHANNELS 3 Zrotation Yrotation Xrotation
									End Site
									{
										OFFSET 0.000000 0.000000 0.000000
									}
								}
							}
						}
					}
				}
				JOINT RightShoulder
				{
					OFFSET 0.000000 0.000000 0.000000
					CHANNELS 3 Zrotation Yrotation Xrotation
					JOINT RightArm
					{
						OFFSET -3.136600 1.374050 -0.404650
						CHANNELS 3 Zrotation Yrotation Xrotation
						JOINT RightForeArm
						{
							OFFSET -5.241900 -0.000000 -0.000000
							CHANNELS 3 Zrotation Yrotation Xrotation
							JOINT RightHand
							{
								OFFSET -3.444170 -0.000000 -0.000000
								CHANNELS 3 Zrotation Yrotation Xrotation
								JOINT RightFingerBase
								{
									OFFSET 0.000000 0.000000 0.000000
									CHANNELS 3 Zrotation Yrotation Xrotation
									JOINT RightHandIndex1
									{
										OFFSET -0.622530 -0.000000 -0.000000
										CHANNELS 3 Zrotation Yrotation Xrotation
										End Site
										{
											OFFSET 0.000000 0.000000 0.000000
										}
									}
								}
								JOINT RThumb
								{
									OFFSET 0.000000 0.000000 0.000000
									CHANNELS 3 Zrotation Yrotation Xrotation
									End Site
									{
										OFFSET 0.000000 0.000000 0.000000
									}
								}
							}
						}
					}
				}
			}
		}
	}
}
MOTION
Frames: 7
Frame Time: 0.008333
2.982233 17.587716 -0.621334 139.035339 -42.255351 -133.148936 -0.902613 -3.475972 5.285013 30.079363 7.336321 -81.323631 -0.533275 -0.687743 2.218724 1.460314 8.619776 35.165872 5.953900 -0.000000 -47.108400 19.295426 5.109111 0.333465 -25.348614 2.949190 -17.870139 -2.498693 -1.681607 13.367742 -0.236900 1.522250 -1.087458 0.137600 -0.000000 -65.814901 -24.142084 -2.340606 -0.646705 -5.703238 -0.703306 -2.443752 -7.121627 -0.666249 1.375978 3.406601 -10.132733 -6.531642 -3.893009 -0.294373 -0.207144 0.000000 0.000000 0.000000 -1.740526 15.938180 2.721784 -65.858849 6.114562 -8.337711 -3.618959 -26.759425 0.011075 6.673432 -1.578745 -0.086851 -0.012113 -0.091627 -0.000000 0.000000 0.000000 0.000000 0.000000 0.000000 0.000000 6.344026 -6.009732 -5.204287 89.599480 29.283637 35.356998 -179.711151 66.069072 179.847730 -14.693413 18.471885 -2.608212 0.339777 -1.115057 -0.000000 0.000000 0.000000 0.000000 0.000000 0.000000 0.000000 
2.978689 17.598412 -0.616152 139.500963 -41.764252 -133.902707 -0.941747 -3.526983 5.042604 29.373896 7.812585 -79.267875 -0.733027 -0.819828 -1.036008 1.325588 8.053992 34.889329 5.554000 0.000000 -45.658200 19.228673 4.956332 0.408830 -25.249635 3.461772 -17.396047 -2.502323 -1.650766 12.768160 -0.224572 1.556342 -0.816908 0.142300 -0.000000 -65.727100 -23.967024 -2.195295 -0.580047 -5.681289 -0.573298 -2.439751 -7.100779 -0.536234 1.375433 3.332805 -10.136878 -6.535738 -3.887177 -0.294489 -0.205093 0.000000 0.000000 0.000000 -1.950933 16.148541 2.675347 -66.099621 6.246290 -8.308826 -3.628137 -26.352186 0.010791 6.415303 -1.481676 -0.077957 -0.013329 -0.092757 -0.000000 0.000000 0.000000 0.000000 0.000000 0.000000 0.000000 6.289077 -5.895318 -5.199482 89.620112 29.135010 35.518964 -179.719584 66.271169 179.848843 -14.683424 18.386739 -2.594020 0.340096 -1.108914 -0.000000 0.000000 0.000000 0.000000 0.000000 0.000000 0.000000 
2.974438 17.607767 -0.612041 139.862961 -41.316579 -134.486460 -0.964835 -3.583635 4.827446 28.098500 8.280080 -78.004302 -0.992466 -0.902293 -3.155027 1.158317 7.050427 34.514618 4.848400 -0.000000 -44.915000 19.175396 4.818893 0.509671 -25.216997 3.923343 -17.041537 -2.515539 -1.616506 12.239034 -0.220514 1.540736 -0.561996 0.138600 0.000000 -65.619900 -23.831724 -2.092942 -0.574157 -5.660911 -0.482891 -2.442191 -7.078829 -0.447466 1.396074 3.292320 -10.159302 -6.542246 -3.882302 -0.294584 -0.202762 0.000000 0.000000 0.000000 -2.109372 16.348984 2.630334 -66.375832 6.389168 -8.345653 -3.636478 -25.904680 0.010539 6.200859 -1.393302 -0.070562 -0.014261 -0.093686 -0.000000 0.000000 0.000000 0.000000 0.000000 0.000000 0.000000 6.274944 -5.835060 -5.194572 89.625036 29.029217 35.711326 -179.734469 66.446503 179.850500 -14.637900 18.321243 -2.576517 0.340414 -1.103801 -0.000000 0.000000 0.000000 0.000000 0.000000 0.000000 0.000000 
2.969867 17.615528 -0.608958 140.097688 -40.941199 -134.868191 -0.979394 -3.625166 4.656045 26.616164 8.625391 -77.303774 -1.255131 -0.951070 -4.334773 1.001238 5.987701 34.124510 4.110700 0.000001 -44.949300 19.141646 4.703411 0.625579 -25.257356 4.294323 -16.814968 -2.538347 -1.582211 11.789546 -0.223676 1.485270 -0.327849 0.128100 0.000000 -65.502500 -23.736968 -2.042529 -0.627280 -5.642535 -0.439780 -2.448889 -7.055885 -0.407518 1.436835 3.289490 -10.202042 -6.551858 -3.877788 -0.294604 -0.200403 0.000000 0.000000 0.000000 -2.209827 16.522134 2.590139 -66.684709 6.542486 -8.434670 -3.643935 -25.424630 0.010311 6.030288 -1.311617 -0.064266 -0.014922 -0.094300 -0.000000 0.000000 0.000000 0.000000 0.000000 0.000000 0.000000 6.301185 -5.834816 -5.188689 89.610637 28.963299 35.921503 -179.754626 66.584429 179.852599 -14.558211 18.277089 -2.556206 0.340642 -1.099923 -0.000000 0.000000 0.000000 0.000000 0.000000 0.000000 0.000000 
2.964905 17.621701 -0.606329 140.214498 -40.651383 -135.065364 -0.995740 -3.639399 4.532778 25.257004 8.755363 -76.898330 -1.471513 -0.972578 -4.793531 0.890893 5.213199 33.821219 3.579200 -0.000000 -45.732100 19.126680 4.610806 0.745454 -25.357964 4.563959 -16.699343 -2.568136 -1.550631 11.420033 -0.232390 1.402588 -0.120542 0.112800 0.000001 -65.380400 -23.671124 -2.041711 -0.727691 -5.624792 -0.441870 -2.457454 -7.031991 -0.413946 1.493763 3.322337 -10.266324 -6.565410 -3.872109 -0.294436 -0.198230 0.000000 0.000000 0.000000 -2.258669 16.659390 2.556281 -67.020460 6.707103 -8.555870 -3.650206 -24.923088 0.010103 5.897851 -1.233794 -0.058772 -0.015351 -0.094578 -0.000000 0.000000 0.000000 0.000000 0.000000 0.000000 0.000000 6.356671 -5.892188 -5.181381 89.572672 28.930425 36.134281 -179.778253 66.675050 179.854981 -14.450098 18.253092 -2.533791 0.340716 -1.097368 -0.000000 0.000000 0.000000 0.000000 0.000000 0.000000 0.000000 
2.959148 17.626356 -0.603401 140.247485 -40.443307 -135.130386 -1.022071 -3.628437 4.446704 24.103785 8.666944 -76.667249 -1.634546 -0.962868 -4.631383 0.827395 4.739248 33.637660 3.254900 -0.000000 -46.996800 19.122603 4.536752 0.861235 -25.489118 4.747456 -16.660505 -2.600407 -1.522071 11.122968 -0.245041 1.302244 0.054079 0.094000 -0.000000 -65.254100 -23.614070 -2.078424 -0.856231 -5.604367 -0.479193 -2.466347 -7.006761 -0.456392 1.560750 3.384072 -10.351629 -6.583583 -3.863345 -0.293942 -0.196330 0.000000 0.000000 0.000000 -2.272212 16.759981 2.528635 -67.374820 6.883325 -8.685693 -3.654822 -24.412779 0.009908 5.793576 -1.156672 -0.053875 -0.015615 -0.094558 -0.000000 0.000000 0.000000 0.000000 0.000000 0.000000 0.000000 6.424222 -5.997970 -5.172076 89.505248 28.921477 36.333578 -179.803410 66.712328 179.857470 -14.322657 18.245435 -2.510473 0.340608 -1.096061 -0.000000 0.000000 0.000000 0.000000 0.000000 0.000000 0.000000 
2.952335 17.629583 -0.599621 140.229170 -40.303532 -135.122593 -1.061174 -3.600298 4.379401 23.118748 8.397600 -76.550601 -1.755955 -0.918339 -3.929736 0.795386 4.426758 33.589253 3.039700 0.000001 -48.410099 19.120905 4.475270 0.967581 -25.621846 4.868408 -16.658259 -2.630924 -1.495945 10.885422 -0.259843 1.193344 0.192930 0.073100 0.000000 -65.120900 -23.549709 -2.137227 -0.990927 -5.578807 -0.538583 -2.474206 -6.979756 -0.521217 1.631065 3.467033 -10.455848 -6.606681 -3.849769 -0.292999 -0.194732 0.000000 0.000000 0.000000 -2.266043 16.827322 2.506257 -67.737430 7.068284 -8.800063 -3.657789 -23.903233 0.009713 5.705379 -1.077804 -0.049078 -0.015805 -0.094291 -0.000000 0.000000 0.000000 0.000000 0.000000 0.000000 0.000000 6.487408 -6.139303 -5.160147 89.404347 28.923678 36.502630 -179.828125 66.696564 179.859879 -14.186376 18.248227 -2.487056 0.340313 -1.095798 -0.000000 0.000000 0.000000 0.000000 0.000000 0.000000 0.000000 
